<?xml version="1.0" encoding="UTF-8" standalone="no"?>
<svg
   xmlns:dc="http://purl.org/dc/elements/1.1/"
   xmlns:cc="http://creativecommons.org/ns#"
   xmlns:rdf="http://www.w3.org/1999/02/22-rdf-syntax-ns#"
   xmlns:svg="http://www.w3.org/2000/svg"
   xmlns="http://www.w3.org/2000/svg"
   xmlns:sodipodi="http://sodipodi.sourceforge.net/DTD/sodipodi-0.dtd"
   xmlns:inkscape="http://www.inkscape.org/namespaces/inkscape"
   version="1.1"
   id="svg10"
   xml:space="preserve"
   width="574.96783"
   height="378.59839"
   viewBox="0 0 574.96783 378.59839"
   sodipodi:docname="teeth_mouth_side.svg"
   inkscape:version="1.0.1 (c497b03c, 2020-09-10)"><metadata
     id="metadata16"><rdf:RDF><cc:Work
         rdf:about=""><dc:format>image/svg+xml</dc:format><dc:type
           rdf:resource="http://purl.org/dc/dcmitype/StillImage" /><dc:title></dc:title></cc:Work></rdf:RDF></metadata><defs
     id="defs14"><clipPath
       clipPathUnits="userSpaceOnUse"
       id="clipPath84"><path
         d="M 0,419.528 H 595.276 V 0 H 0 Z"
         id="path82" /></clipPath><clipPath
       clipPathUnits="userSpaceOnUse"
       id="clipPath330"><path
         d="M 0,419.528 H 595.276 V 0 H 0 Z"
         id="path328" /></clipPath></defs><sodipodi:namedview
     pagecolor="#ffffff"
     bordercolor="#666666"
     borderopacity="1"
     objecttolerance="10"
     gridtolerance="10"
     guidetolerance="10"
     inkscape:pageopacity="0"
     inkscape:pageshadow="2"
     inkscape:window-width="1132"
     inkscape:window-height="961"
     id="namedview12"
     showgrid="false"
     inkscape:zoom="1.3139767"
     inkscape:cx="333.27549"
     inkscape:cy="189.28624"
     inkscape:window-x="0"
     inkscape:window-y="25"
     inkscape:window-maximized="0"
     inkscape:current-layer="g18" /><g
     id="g18"
     inkscape:groupmode="layer"
     inkscape:label="SCHEMA-BOUCHES_SIDE-CLN-TOEXP-001"
     transform="matrix(1.3333333,0,0,-1.3333333,-63.575192,468.97158)"><text
       transform="matrix(1,0,0,-1,398.4263,150.4297)"
       style="font-variant:normal;font-weight:300;font-stretch:normal;font-size:12px;font-family:'Josefin Sans Light';-inkscape-font-specification:JosefinSans-Light;writing-mode:lr-tb;fill:#231f20;fill-opacity:1;fill-rule:nonzero;stroke:none"
       id="text22"><tspan
         x="0"
         y="0"
         id="tspan20">3</tspan></text><text
       transform="matrix(1,0,0,-1,404.666,154.4258)"
       style="font-variant:normal;font-weight:300;font-stretch:normal;font-size:6.996px;font-family:'Josefin Sans Light';-inkscape-font-specification:JosefinSans-Light;writing-mode:lr-tb;fill:#231f20;fill-opacity:1;fill-rule:nonzero;stroke:none"
       id="text26"><tspan
         x="0 3.407052 8.9129038"
         y="0"
         sodipodi:role="line"
         id="tspan24">ème</tspan></text><text
       transform="matrix(1,0,0,-1,420.6698,150.4297)"
       style="font-variant:normal;font-weight:300;font-stretch:normal;font-size:12px;font-family:'Josefin Sans Light';-inkscape-font-specification:JosefinSans-Light;writing-mode:lr-tb;fill:#231f20;fill-opacity:1;fill-rule:nonzero;stroke:none"
       id="text32"><tspan
         x="0 9.4440002 15.672 18.372 25.08 27.780001 31.691999"
         y="0"
         sodipodi:role="line"
         id="tspan28">molaire</tspan><tspan
         x="-22.247999"
         y="-15.888"
         id="tspan30">2</tspan></text><text
       transform="matrix(1,0,0,-1,404.5103,170.3135)"
       style="font-variant:normal;font-weight:300;font-stretch:normal;font-size:6.996px;font-family:'Josefin Sans Light';-inkscape-font-specification:JosefinSans-Light;writing-mode:lr-tb;fill:#231f20;fill-opacity:1;fill-rule:nonzero;stroke:none"
       id="text36"><tspan
         x="0 3.407052 8.9129038"
         y="0"
         sodipodi:role="line"
         id="tspan34">ème</tspan></text><text
       transform="matrix(1,0,0,-1,420.5141,166.3174)"
       style="font-variant:normal;font-weight:300;font-stretch:normal;font-size:12px;font-family:'Josefin Sans Light';-inkscape-font-specification:JosefinSans-Light;writing-mode:lr-tb;fill:#231f20;fill-opacity:1;fill-rule:nonzero;stroke:none"
       id="text42"><tspan
         x="0 9.4440002 15.672 18.372 25.08 27.780001 31.691999"
         y="0"
         sodipodi:role="line"
         id="tspan38">molaire</tspan><tspan
         x="-22.091999"
         y="-15.888"
         id="tspan40">1</tspan></text><text
       transform="matrix(1,0,0,-1,402.2061,186.2021)"
       style="font-variant:normal;font-weight:300;font-stretch:normal;font-size:6.996px;font-family:'Josefin Sans Light';-inkscape-font-specification:JosefinSans-Light;writing-mode:lr-tb;fill:#231f20;fill-opacity:1;fill-rule:nonzero;stroke:none"
       id="text46"><tspan
         x="0 3.407052 5.687748"
         y="0"
         sodipodi:role="line"
         id="tspan44">ère</tspan></text><text
       transform="matrix(1,0,0,-1,414.9848,182.2061)"
       style="font-variant:normal;font-weight:300;font-stretch:normal;font-size:12px;font-family:'Josefin Sans Light';-inkscape-font-specification:JosefinSans-Light;writing-mode:lr-tb;fill:#231f20;fill-opacity:1;fill-rule:nonzero;stroke:none"
       id="text52"><tspan
         x="0 9.4440002 15.672 18.372 25.08 27.780001 31.691999"
         y="0"
         sodipodi:role="line"
         id="tspan48">molaire</tspan><tspan
         x="-16.559999"
         y="-15.888"
         id="tspan50">2</tspan></text><text
       transform="matrix(1,0,0,-1,404.5103,202.0898)"
       style="font-variant:normal;font-weight:300;font-stretch:normal;font-size:6.996px;font-family:'Josefin Sans Light';-inkscape-font-specification:JosefinSans-Light;writing-mode:lr-tb;fill:#231f20;fill-opacity:1;fill-rule:nonzero;stroke:none"
       id="text56"><tspan
         x="0 3.407052 8.9129038"
         y="0"
         sodipodi:role="line"
         id="tspan54">ème</tspan></text><text
       transform="matrix(1,0,0,-1,420.5141,198.0937)"
       style="font-variant:normal;font-weight:300;font-stretch:normal;font-size:12px;font-family:'Josefin Sans Light';-inkscape-font-specification:JosefinSans-Light;writing-mode:lr-tb;fill:#231f20;fill-opacity:1;fill-rule:nonzero;stroke:none"
       id="text62"><tspan
         x="0 6.744 10.656 16.5 25.944 32.172001 34.872002 41.580002 44.279999 48.192001"
         y="0"
         sodipodi:role="line"
         id="tspan58">prémolaire</tspan><tspan
         x="-22.091999"
         y="-15.888"
         id="tspan60">1</tspan></text><text
       transform="matrix(1,0,0,-1,402.2061,217.9775)"
       style="font-variant:normal;font-weight:300;font-stretch:normal;font-size:6.996px;font-family:'Josefin Sans Light';-inkscape-font-specification:JosefinSans-Light;writing-mode:lr-tb;fill:#231f20;fill-opacity:1;fill-rule:nonzero;stroke:none"
       id="text66"><tspan
         x="0 3.407052 5.687748"
         y="0"
         sodipodi:role="line"
         id="tspan64">ère</tspan></text><text
       transform="matrix(1,0,0,-1,414.9848,213.9814)"
       style="font-variant:normal;font-weight:300;font-stretch:normal;font-size:12px;font-family:'Josefin Sans Light';-inkscape-font-specification:JosefinSans-Light;writing-mode:lr-tb;fill:#231f20;fill-opacity:1;fill-rule:nonzero;stroke:none"
       id="text76"><tspan
         x="0 6.744 10.656 16.5 25.944 32.172001 34.872002 41.580002 44.279999 48.192001"
         y="0"
         sodipodi:role="line"
         id="tspan68">prémolaire</tspan><tspan
         x="-16.559999 -8.2679996 -1.5599999 4.5840001 7.2839999 13.428"
         y="-15.888"
         sodipodi:role="line"
         id="tspan70">Canine</tspan><tspan
         x="-16.559999 -13.26 -7.1160002 -1.92 0.77999997 5.1960001 7.8959999 13.284 19.128 22.812 25.511999 32.220001 36.119999 41.964001 46.007999 52.716 55.416"
         y="-31.775999"
         sodipodi:role="line"
         id="tspan72">Incisive latérale</tspan><tspan
         x="-16.559999 -13.26 -7.1160002 -1.92 0.77999997 5.1960001 7.8959999 13.284 19.128 22.812 28.007999 33.852001 39.995998 43.896 47.952 54.66 57.360001"
         y="-47.664001"
         sodipodi:role="line"
         id="tspan74">Incisive centrale</tspan></text><g
       id="g78"><g
         id="g80"
         clip-path="url(#clipPath84)"><g
           id="g86"
           transform="translate(382.587,249.4839)"><path
             d="M 0,0 C 0,-1.256 1.019,-2.274 2.275,-2.274 3.531,-2.274 4.55,-1.256 4.55,0 4.55,1.257 3.531,2.275 2.275,2.275 1.019,2.275 0,1.257 0,0"
             style="fill:#e12526;fill-opacity:1;fill-rule:nonzero;stroke:none"
             id="path88" /></g><g
           id="g90"
           transform="translate(382.587,233.5962)"><path
             d="M 0,0 C 0,-1.256 1.019,-2.274 2.275,-2.274 3.531,-2.274 4.55,-1.256 4.55,0 4.55,1.256 3.531,2.274 2.275,2.274 1.019,2.274 0,1.256 0,0"
             style="fill:#64c7c7;fill-opacity:1;fill-rule:nonzero;stroke:none"
             id="path92" /></g><g
           id="g94"
           transform="translate(382.587,217.7085)"><path
             d="M 0,0 C 0,-1.257 1.019,-2.275 2.275,-2.275 3.531,-2.275 4.55,-1.257 4.55,0 4.55,1.256 3.531,2.274 2.275,2.274 1.019,2.274 0,1.256 0,0"
             style="fill:#3e5aa8;fill-opacity:1;fill-rule:nonzero;stroke:none"
             id="path96" /></g><g
           id="g98"
           transform="translate(382.587,265.3726)"><path
             d="M 0,0 C 0,-1.257 1.019,-2.275 2.275,-2.275 3.531,-2.275 4.55,-1.257 4.55,0 4.55,1.256 3.531,2.274 2.275,2.274 1.019,2.274 0,1.256 0,0"
             style="fill:#f07721;fill-opacity:1;fill-rule:nonzero;stroke:none"
             id="path100" /></g><g
           id="g102"
           transform="translate(382.587,154.1558)"><path
             d="M 0,0 C 0,-1.256 1.019,-2.274 2.275,-2.274 3.531,-2.274 4.55,-1.256 4.55,0 4.55,1.257 3.531,2.275 2.275,2.275 1.019,2.275 0,1.257 0,0"
             style="fill:#b5b3b3;fill-opacity:1;fill-rule:nonzero;stroke:none"
             id="path104" /></g><g
           id="g106"
           transform="translate(382.587,170.0444)"><path
             d="M 0,0 C 0,-1.257 1.019,-2.275 2.275,-2.275 3.531,-2.275 4.55,-1.257 4.55,0 4.55,1.256 3.531,2.274 2.275,2.274 1.019,2.274 0,1.256 0,0"
             style="fill:#52504f;fill-opacity:1;fill-rule:nonzero;stroke:none"
             id="path108" /></g><g
           id="g110"
           transform="translate(382.587,185.9321)"><path
             d="M 0,0 C 0,-1.256 1.019,-2.274 2.275,-2.274 3.531,-2.274 4.55,-1.256 4.55,0 4.55,1.256 3.531,2.274 2.275,2.274 1.019,2.274 0,1.256 0,0"
             style="fill:#000000;fill-opacity:1;fill-rule:nonzero;stroke:none"
             id="path112" /></g><g
           id="g114"
           transform="translate(382.587,201.8198)"><path
             d="M 0,0 C 0,-1.256 1.019,-2.274 2.275,-2.274 3.531,-2.274 4.55,-1.256 4.55,0 4.55,1.257 3.531,2.275 2.275,2.275 1.019,2.275 0,1.257 0,0"
             style="fill:#a6abd6;fill-opacity:1;fill-rule:nonzero;stroke:none"
             id="path116" /></g><g
           id="g118"
           transform="translate(184.711,210.5161)"><path
             d="m 0,0 c -55.086,0.051 -110.23,1.701 -113.083,4.938 -5.787,6.551 -7.612,48.658 0,58.574 3.743,4.887 58.447,8.93 113.083,9.839 54.635,-0.909 109.34,-4.952 113.083,-9.839 7.612,-9.916 5.787,-52.023 0,-58.574 C 110.229,1.701 55.086,0.051 0,0"
             style="fill:#929190;fill-opacity:1;fill-rule:nonzero;stroke:none"
             id="path120" /></g><g
           id="g122"
           transform="translate(98.0347,216.6401)"><path
             d="m 0,0 c 1.595,10.517 8.183,7.503 12.248,1.219 l 0.98,-9.85 C 14.801,-24.456 2.554,-25.675 0.98,-9.849 Z"
             style="fill:#ffffff;fill-opacity:1;fill-rule:nonzero;stroke:none"
             id="path124" /></g><g
           id="g126"
           transform="translate(98.0347,216.6401)"><path
             d="m 0,0 c 1.595,10.517 8.183,7.503 12.248,1.219 l 0.98,-9.85 C 14.801,-24.456 2.554,-25.675 0.98,-9.849 Z"
             style="fill:none;stroke:#003f84;stroke-width:2;stroke-linecap:butt;stroke-linejoin:miter;stroke-miterlimit:10;stroke-dasharray:none;stroke-opacity:1"
             id="path128" /></g><g
           id="g130"
           transform="translate(109.3609,215.9204)"><path
             d="M 0,0 C 1.753,12.168 11.281,8.349 17.109,1.25 L 17.82,-8.48 C 19.328,-29.104 2.219,-30.355 0.711,-9.73 Z"
             style="fill:#ffffff;fill-opacity:1;fill-rule:nonzero;stroke:none"
             id="path132" /></g><g
           id="g134"
           transform="translate(109.3609,215.9204)"><path
             d="M 0,0 C 1.753,12.168 11.281,8.349 17.109,1.25 L 17.82,-8.48 C 19.328,-29.104 2.219,-30.355 0.711,-9.73 Z"
             style="fill:none;stroke:#003f84;stroke-width:2;stroke-linecap:butt;stroke-linejoin:miter;stroke-miterlimit:10;stroke-dasharray:none;stroke-opacity:1"
             id="path136" /></g><g
           id="g138"
           transform="translate(124.8062,215.7192)"><path
             d="M 0,0 C -0.066,13.504 15.229,12.435 19.127,0.927 L 19.744,-11.81 C 20.657,-30.645 1.53,-31.572 0.617,-12.736 Z"
             style="fill:#ffffff;fill-opacity:1;fill-rule:nonzero;stroke:none"
             id="path140" /></g><g
           id="g142"
           transform="translate(124.8062,215.7192)"><path
             d="M 0,0 C -0.066,13.504 15.229,12.435 19.127,0.927 L 19.744,-11.81 C 20.657,-30.645 1.53,-31.572 0.617,-12.736 Z"
             style="fill:none;stroke:#003f84;stroke-width:2;stroke-linecap:butt;stroke-linejoin:miter;stroke-miterlimit:10;stroke-dasharray:none;stroke-opacity:1"
             id="path144" /></g><g
           id="g146"
           transform="translate(141.7945,221.5796)"><path
             d="m 0,0 c -0.3,5.703 21.958,7.882 22.257,2.179 l 0.899,-17.111 C 24.231,-35.396 2.638,-40.565 0.846,-16.104 Z"
             style="fill:#ffffff;fill-opacity:1;fill-rule:nonzero;stroke:none"
             id="path148" /></g><g
           id="g150"
           transform="translate(141.7945,221.5796)"><path
             d="m 0,0 c -0.3,5.703 21.958,7.882 22.257,2.179 l 0.899,-17.111 C 24.231,-35.396 2.638,-40.565 0.846,-16.104 Z"
             style="fill:none;stroke:#003f84;stroke-width:2;stroke-linecap:butt;stroke-linejoin:miter;stroke-miterlimit:10;stroke-dasharray:none;stroke-opacity:1"
             id="path152" /></g><g
           id="g154"
           transform="translate(164.317,222.5923)"><path
             d="M 0,0 C 0,4.804 20.455,4.804 20.455,0 V -14.411 C 20.455,-31.648 0,-40.118 0,-14.411 Z"
             style="fill:#ffffff;fill-opacity:1;fill-rule:nonzero;stroke:none"
             id="path156" /></g><g
           id="g158"
           transform="translate(164.317,222.5923)"><path
             d="M 0,0 C 0,4.804 20.455,4.804 20.455,0 V -14.411 C 20.455,-31.648 0,-40.118 0,-14.411 Z"
             style="fill:none;stroke:#003f84;stroke-width:2;stroke-linecap:butt;stroke-linejoin:miter;stroke-miterlimit:10;stroke-dasharray:none;stroke-opacity:1"
             id="path160" /></g><g
           id="g162"
           transform="translate(271.5089,216.6401)"><path
             d="m 0,0 c -1.594,10.517 -8.183,7.503 -12.248,1.219 l -0.979,-9.85 c -1.574,-15.825 10.673,-17.044 12.248,-1.218 z"
             style="fill:#ffffff;fill-opacity:1;fill-rule:nonzero;stroke:none"
             id="path164" /></g><g
           id="g166"
           transform="translate(271.5089,216.6401)"><path
             d="m 0,0 c -1.594,10.517 -8.183,7.503 -12.248,1.219 l -0.979,-9.85 c -1.574,-15.825 10.673,-17.044 12.248,-1.218 z"
             style="fill:none;stroke:#003f84;stroke-width:2;stroke-linecap:butt;stroke-linejoin:miter;stroke-miterlimit:10;stroke-dasharray:none;stroke-opacity:1"
             id="path168" /></g><g
           id="g170"
           transform="translate(260.1832,215.9204)"><path
             d="m 0,0 c -1.753,12.168 -11.282,8.349 -17.109,1.25 l -0.711,-9.73 c -1.508,-20.624 15.601,-21.875 17.109,-1.25 z"
             style="fill:#ffffff;fill-opacity:1;fill-rule:nonzero;stroke:none"
             id="path172" /></g><g
           id="g174"
           transform="translate(260.1832,215.9204)"><path
             d="m 0,0 c -1.753,12.168 -11.282,8.349 -17.109,1.25 l -0.711,-9.73 c -1.508,-20.624 15.601,-21.875 17.109,-1.25 z"
             style="fill:none;stroke:#003f84;stroke-width:2;stroke-linecap:butt;stroke-linejoin:miter;stroke-miterlimit:10;stroke-dasharray:none;stroke-opacity:1"
             id="path176" /></g><g
           id="g178"
           transform="translate(244.7379,215.7192)"><path
             d="m 0,0 c 0.066,13.504 -15.229,12.435 -19.127,0.927 l -0.617,-12.737 c -0.913,-18.835 18.214,-19.762 19.127,-0.926 z"
             style="fill:#ffffff;fill-opacity:1;fill-rule:nonzero;stroke:none"
             id="path180" /></g><g
           id="g182"
           transform="translate(244.7379,215.7192)"><path
             d="m 0,0 c 0.066,13.504 -15.229,12.435 -19.127,0.927 l -0.617,-12.737 c -0.913,-18.835 18.214,-19.762 19.127,-0.926 z"
             style="fill:none;stroke:#003f84;stroke-width:2;stroke-linecap:butt;stroke-linejoin:miter;stroke-miterlimit:10;stroke-dasharray:none;stroke-opacity:1"
             id="path184" /></g><g
           id="g186"
           transform="translate(227.7491,221.5796)"><path
             d="m 0,0 c 0.3,5.703 -21.958,7.882 -22.257,2.179 l -0.899,-17.111 c -1.075,-20.464 20.518,-25.633 22.31,-1.172 z"
             style="fill:#ffffff;fill-opacity:1;fill-rule:nonzero;stroke:none"
             id="path188" /></g><g
           id="g190"
           transform="translate(227.7491,221.5796)"><path
             d="m 0,0 c 0.3,5.703 -21.958,7.882 -22.257,2.179 l -0.899,-17.111 c -1.075,-20.464 20.518,-25.633 22.31,-1.172 z"
             style="fill:none;stroke:#003f84;stroke-width:2;stroke-linecap:butt;stroke-linejoin:miter;stroke-miterlimit:10;stroke-dasharray:none;stroke-opacity:1"
             id="path192" /></g><g
           id="g194"
           transform="translate(205.2266,222.5923)"><path
             d="m 0,0 c 0,4.804 -20.455,4.804 -20.455,0 v -14.411 c 0,-17.237 20.455,-25.707 20.455,0 z"
             style="fill:#ffffff;fill-opacity:1;fill-rule:nonzero;stroke:none"
             id="path196" /></g><g
           id="g198"
           transform="translate(205.2266,222.5923)"><path
             d="m 0,0 c 0,4.804 -20.455,4.804 -20.455,0 v -14.411 c 0,-17.237 20.455,-25.707 20.455,0 z"
             style="fill:none;stroke:#003f84;stroke-width:2;stroke-linecap:butt;stroke-linejoin:miter;stroke-miterlimit:10;stroke-dasharray:none;stroke-opacity:1"
             id="path200" /></g><g
           id="g202"
           transform="translate(284.1089,266.9595)"><path
             d="m 0,0 c -3.875,-9.692 -10.011,-5.576 -12.856,1.17 l 1.085,9.547 c 1.743,15.341 14.599,14.171 12.856,-1.17 z"
             style="fill:#ffffff;fill-opacity:1;fill-rule:nonzero;stroke:none"
             id="path204" /></g><g
           id="g206"
           transform="translate(284.1089,266.9595)"><path
             d="m 0,0 c -3.875,-9.692 -10.011,-5.576 -12.856,1.17 l 1.085,9.547 c 1.743,15.341 14.599,14.171 12.856,-1.17 z"
             style="fill:none;stroke:#003f84;stroke-width:2;stroke-linecap:butt;stroke-linejoin:miter;stroke-miterlimit:10;stroke-dasharray:none;stroke-opacity:1"
             id="path208" /></g><g
           id="g210"
           transform="translate(273.8438,265.2778)"><path
             d="m 0,0 c -4.05,-11.68 -13.204,-6.371 -17.927,1.561 l 1.053,9.684 c 2.231,20.527 20.159,18.967 17.927,-1.56 z"
             style="fill:#ffffff;fill-opacity:1;fill-rule:nonzero;stroke:none"
             id="path212" /></g><g
           id="g214"
           transform="translate(273.8438,265.2778)"><path
             d="m 0,0 c -4.05,-11.68 -13.204,-6.371 -17.927,1.561 l 1.053,9.684 c 2.231,20.527 20.159,18.967 17.927,-1.56 z"
             style="fill:none;stroke:#003f84;stroke-width:2;stroke-linecap:butt;stroke-linejoin:miter;stroke-miterlimit:10;stroke-dasharray:none;stroke-opacity:1"
             id="path216" /></g><g
           id="g218"
           transform="translate(259.0279,265.188)"><path
             d="m 0,0 c -1.38,-13.238 -17.242,-10.725 -20.08,0.926 l 0.723,12.54 C -18.29,32.01 1.79,31.084 0.722,12.54 Z"
             style="fill:#ffffff;fill-opacity:1;fill-rule:nonzero;stroke:none"
             id="path220" /></g><g
           id="g222"
           transform="translate(259.0279,265.188)"><path
             d="m 0,0 c -1.38,-13.238 -17.242,-10.725 -20.08,0.926 l 0.723,12.54 C -18.29,32.01 1.79,31.084 0.722,12.54 Z"
             style="fill:none;stroke:#003f84;stroke-width:2;stroke-linecap:butt;stroke-linejoin:miter;stroke-miterlimit:10;stroke-dasharray:none;stroke-opacity:1"
             id="path224" /></g><g
           id="g226"
           transform="translate(241.4478,261.5483)"><path
             d="m 0,0 c -0.124,-5.669 -23.598,-6.26 -23.474,-0.591 l 0.371,17.008 C -22.659,36.76 0.35,40.358 0.35,16.007 Z"
             style="fill:#ffffff;fill-opacity:1;fill-rule:nonzero;stroke:none"
             id="path228" /></g><g
           id="g230"
           transform="translate(241.4478,261.5483)"><path
             d="m 0,0 c -0.124,-5.669 -23.598,-6.26 -23.474,-0.591 l 0.371,17.008 C -22.659,36.76 0.35,40.358 0.35,16.007 Z"
             style="fill:none;stroke:#003f84;stroke-width:2;stroke-linecap:butt;stroke-linejoin:miter;stroke-miterlimit:10;stroke-dasharray:none;stroke-opacity:1"
             id="path232" /></g><g
           id="g234"
           transform="translate(218.2818,256.9556)"><path
             d="m 0,0 c 0,-6.18 -33.51,-6.18 -33.51,0 v 18.537 c 0,22.173 33.51,33.067 33.51,0 z"
             style="fill:#ffffff;fill-opacity:1;fill-rule:nonzero;stroke:none"
             id="path236" /></g><g
           id="g238"
           transform="translate(218.2818,256.9556)"><path
             d="m 0,0 c 0,-6.18 -33.51,-6.18 -33.51,0 v 18.537 c 0,22.173 33.51,33.067 33.51,0 z"
             style="fill:none;stroke:#003f84;stroke-width:2;stroke-linecap:butt;stroke-linejoin:miter;stroke-miterlimit:10;stroke-dasharray:none;stroke-opacity:1"
             id="path240" /></g><g
           id="g242"
           transform="translate(85.4346,266.9595)"><path
             d="m 0,0 c 3.875,-9.692 10.011,-5.576 12.857,1.17 l -1.085,9.547 c -1.743,15.341 -14.6,14.171 -12.857,-1.17 z"
             style="fill:#ffffff;fill-opacity:1;fill-rule:nonzero;stroke:none"
             id="path244" /></g><g
           id="g246"
           transform="translate(85.4346,266.9595)"><path
             d="m 0,0 c 3.875,-9.692 10.011,-5.576 12.857,1.17 l -1.085,9.547 c -1.743,15.341 -14.6,14.171 -12.857,-1.17 z"
             style="fill:none;stroke:#003f84;stroke-width:2;stroke-linecap:butt;stroke-linejoin:miter;stroke-miterlimit:10;stroke-dasharray:none;stroke-opacity:1"
             id="path248" /></g><g
           id="g250"
           transform="translate(95.6998,265.2778)"><path
             d="m 0,0 c 4.05,-11.68 13.204,-6.371 17.927,1.561 l -1.052,9.684 C 14.643,31.772 -3.284,30.212 -1.053,9.685 Z"
             style="fill:#ffffff;fill-opacity:1;fill-rule:nonzero;stroke:none"
             id="path252" /></g><g
           id="g254"
           transform="translate(95.6998,265.2778)"><path
             d="m 0,0 c 4.05,-11.68 13.204,-6.371 17.927,1.561 l -1.052,9.684 C 14.643,31.772 -3.284,30.212 -1.053,9.685 Z"
             style="fill:none;stroke:#003f84;stroke-width:2;stroke-linecap:butt;stroke-linejoin:miter;stroke-miterlimit:10;stroke-dasharray:none;stroke-opacity:1"
             id="path256" /></g><g
           id="g258"
           transform="translate(110.5157,265.188)"><path
             d="m 0,0 c 1.38,-13.238 17.243,-10.725 20.08,0.926 l -0.723,12.54 C 18.29,32.01 -1.79,31.084 -0.722,12.54 Z"
             style="fill:#ffffff;fill-opacity:1;fill-rule:nonzero;stroke:none"
             id="path260" /></g><g
           id="g262"
           transform="translate(110.5157,265.188)"><path
             d="m 0,0 c 1.38,-13.238 17.243,-10.725 20.08,0.926 l -0.723,12.54 C 18.29,32.01 -1.79,31.084 -0.722,12.54 Z"
             style="fill:none;stroke:#003f84;stroke-width:2;stroke-linecap:butt;stroke-linejoin:miter;stroke-miterlimit:10;stroke-dasharray:none;stroke-opacity:1"
             id="path264" /></g><g
           id="g266"
           transform="translate(128.0958,261.5483)"><path
             d="M 0,0 C 0.124,-5.669 23.598,-6.26 23.475,-0.591 L 23.104,16.417 C 22.66,36.76 -0.349,40.358 -0.349,16.007 Z"
             style="fill:#ffffff;fill-opacity:1;fill-rule:nonzero;stroke:none"
             id="path268" /></g><g
           id="g270"
           transform="translate(128.0958,261.5483)"><path
             d="M 0,0 C 0.124,-5.669 23.598,-6.26 23.475,-0.591 L 23.104,16.417 C 22.66,36.76 -0.349,40.358 -0.349,16.007 Z"
             style="fill:none;stroke:#003f84;stroke-width:2;stroke-linecap:butt;stroke-linejoin:miter;stroke-miterlimit:10;stroke-dasharray:none;stroke-opacity:1"
             id="path272" /></g><g
           id="g274"
           transform="translate(151.2618,256.9556)"><path
             d="M 0,0 C 0,-6.18 33.51,-6.18 33.51,0 V 18.537 C 33.51,40.71 0,51.604 0,18.537 Z"
             style="fill:#ffffff;fill-opacity:1;fill-rule:nonzero;stroke:none"
             id="path276" /></g><g
           id="g278"
           transform="translate(151.2618,256.9556)"><path
             d="M 0,0 C 0,-6.18 33.51,-6.18 33.51,0 V 18.537 C 33.51,40.71 0,51.604 0,18.537 Z"
             style="fill:none;stroke:#003f84;stroke-width:2;stroke-linecap:butt;stroke-linejoin:miter;stroke-miterlimit:10;stroke-dasharray:none;stroke-opacity:1"
             id="path280" /></g><g
           id="g282"
           transform="translate(184.711,210.5161)"><path
             d="m 0,0 c -55.086,0.051 -110.23,1.701 -113.083,4.938 -5.787,6.551 -7.612,48.658 0,58.574 3.743,4.887 58.447,8.93 113.083,9.839 54.635,-0.909 109.34,-4.952 113.083,-9.839 7.612,-9.916 5.787,-52.023 0,-58.574 C 110.229,1.701 55.086,0.051 0,0 Z"
             style="fill:none;stroke:#003f84;stroke-width:2;stroke-linecap:butt;stroke-linejoin:miter;stroke-miterlimit:10;stroke-dasharray:none;stroke-opacity:1"
             id="path284" /></g></g></g><text
       transform="matrix(1,0,0,-1,207.9834,298.1982)"
       style="font-variant:normal;font-weight:300;font-stretch:normal;font-size:10.0264px;font-family:'Josefin Sans Light';-inkscape-font-specification:JosefinSans-Light;writing-mode:lr-tb;fill:#231f20;fill-opacity:1;fill-rule:nonzero;stroke:none"
       id="text322"><tspan
         x="0 5.083385"
         y="0"
         sodipodi:role="line"
         id="tspan286">21</tspan><tspan
         x="25.517187 30.600573"
         y="1.7947257"
         sodipodi:role="line"
         id="tspan288">22</tspan><tspan
         x="44.64756 49.730946"
         y="3.659636"
         sodipodi:role="line"
         id="tspan290">23</tspan><tspan
         x="60.529377 65.462364"
         y="4.2511935"
         sodipodi:role="line"
         id="tspan292">24</tspan><tspan
         x="75.318314 80.401703"
         y="9.5852385"
         sodipodi:role="line"
         id="tspan294">25</tspan><tspan
         x="60.338875 65.552605"
         y="109.06718"
         sodipodi:role="line"
         id="tspan296">35</tspan><tspan
         x="44.587402 49.801128"
         y="114.88249"
         sodipodi:role="line"
         id="tspan298">34</tspan><tspan
         x="28.274448 33.407967 10.066505 15.230102"
         y="118.02075"
         sodipodi:role="line"
         id="tspan300">3332</tspan><tspan
         x="-11.008987 -5.795259"
         y="116.43658"
         sodipodi:role="line"
         id="tspan302">31</tspan><tspan
         x="-54.072376 -50.914059"
         y="0.0100264"
         sodipodi:role="line"
         id="tspan304">11</tspan><tspan
         x="-81.514633 -78.356316"
         y="1.804752"
         sodipodi:role="line"
         id="tspan306">12</tspan><tspan
         x="-100.77534 -97.617027"
         y="3.6696625"
         sodipodi:role="line"
         id="tspan308">13</tspan><tspan
         x="-116.56693 -113.40861"
         y="4.26122"
         sodipodi:role="line"
         id="tspan310">14</tspan><tspan
         x="-131.52632 -128.368"
         y="9.5952644"
         sodipodi:role="line"
         id="tspan312">15</tspan><tspan
         x="-117.62972 -112.43605"
         y="109.07721"
         sodipodi:role="line"
         id="tspan314">45</tspan><tspan
         x="-101.78801 -96.594337"
         y="114.89252"
         sodipodi:role="line"
         id="tspan316">44</tspan><tspan
         x="-85.455009 -80.26133 -67.126747 -61.933071"
         y="118.03078"
         sodipodi:role="line"
         id="tspan318">4342</tspan><tspan
         x="-44.156265 -38.962589"
         y="116.44661"
         sodipodi:role="line"
         id="tspan320">41</tspan></text><g
       id="g324"><g
         id="g326"
         clip-path="url(#clipPath330)"><g
           id="g332"
           transform="translate(132.3057,309.0991)"><path
             d="m 0,0 c 0,-1.256 -1.019,-2.274 -2.275,-2.274 -1.256,0 -2.275,1.018 -2.275,2.274 0,1.257 1.019,2.275 2.275,2.275 C -1.019,2.275 0,1.257 0,0"
             style="fill:#e12526;fill-opacity:1;fill-rule:nonzero;stroke:none"
             id="path334" /></g><g
           id="g336"
           transform="translate(113.3721,307.4526)"><path
             d="m 0,0 c 0,-1.256 -1.019,-2.274 -2.275,-2.274 -1.256,0 -2.274,1.018 -2.274,2.274 0,1.257 1.018,2.275 2.274,2.275 C -1.019,2.275 0,1.257 0,0"
             style="fill:#64c7c7;fill-opacity:1;fill-rule:nonzero;stroke:none"
             id="path338" /></g><g
           id="g340"
           transform="translate(97.3614,306.9038)"><path
             d="m 0,0 c 0,-1.257 -1.019,-2.275 -2.274,-2.275 -1.257,0 -2.275,1.018 -2.275,2.275 0,1.256 1.018,2.274 2.275,2.274 C -1.019,2.274 0,1.256 0,0"
             style="fill:#3e5aa8;fill-opacity:1;fill-rule:nonzero;stroke:none"
             id="path342" /></g><g
           id="g344"
           transform="translate(158.7843,310.5474)"><path
             d="m 0,0 c 0,-1.256 -1.019,-2.274 -2.275,-2.274 -1.256,0 -2.275,1.018 -2.275,2.274 0,1.257 1.019,2.275 2.275,2.275 C -1.019,2.275 0,1.257 0,0"
             style="fill:#f07721;fill-opacity:1;fill-rule:nonzero;stroke:none"
             id="path346" /></g><g
           id="g348"
           transform="translate(82.4014,301.3911)"><path
             d="m 0,0 c 0,-1.256 -1.019,-2.274 -2.275,-2.274 -1.256,0 -2.275,1.018 -2.275,2.274 0,1.257 1.019,2.275 2.275,2.275 C -1.019,2.275 0,1.257 0,0"
             style="fill:#a6abd6;fill-opacity:1;fill-rule:nonzero;stroke:none"
             id="path350" /></g><g
           id="g352"
           transform="translate(236.3082,309.0991)"><path
             d="M 0,0 C 0,-1.256 1.019,-2.274 2.275,-2.274 3.531,-2.274 4.55,-1.256 4.55,0 4.55,1.257 3.531,2.275 2.275,2.275 1.019,2.275 0,1.257 0,0"
             style="fill:#e12526;fill-opacity:1;fill-rule:nonzero;stroke:none"
             id="path354" /></g><g
           id="g356"
           transform="translate(255.2418,307.4526)"><path
             d="m 0,0 c 0,-1.256 1.019,-2.274 2.275,-2.274 1.256,0 2.274,1.018 2.274,2.274 0,1.257 -1.018,2.275 -2.274,2.275 C 1.019,2.275 0,1.257 0,0"
             style="fill:#64c7c7;fill-opacity:1;fill-rule:nonzero;stroke:none"
             id="path358" /></g><g
           id="g360"
           transform="translate(271.2525,306.9038)"><path
             d="m 0,0 c 0,-1.257 1.018,-2.275 2.274,-2.275 1.257,0 2.275,1.018 2.275,2.275 0,1.256 -1.018,2.274 -2.275,2.274 C 1.018,2.274 0,1.256 0,0"
             style="fill:#3e5aa8;fill-opacity:1;fill-rule:nonzero;stroke:none"
             id="path362" /></g><g
           id="g364"
           transform="translate(209.8297,310.5474)"><path
             d="M 0,0 C 0,-1.256 1.019,-2.274 2.275,-2.274 3.531,-2.274 4.55,-1.256 4.55,0 4.55,1.257 3.531,2.275 2.275,2.275 1.019,2.275 0,1.257 0,0"
             style="fill:#f07721;fill-opacity:1;fill-rule:nonzero;stroke:none"
             id="path366" /></g><g
           id="g368"
           transform="translate(286.2125,301.3911)"><path
             d="M 0,0 C 0,-1.256 1.019,-2.274 2.275,-2.274 3.531,-2.274 4.55,-1.256 4.55,0 4.55,1.257 3.531,2.275 2.275,2.275 1.019,2.275 0,1.257 0,0"
             style="fill:#a6abd6;fill-opacity:1;fill-rule:nonzero;stroke:none"
             id="path370" /></g><g
           id="g372"
           transform="translate(143.731,173.7671)"><path
             d="M 0,0 C 0,-1.257 1.019,-2.275 2.275,-2.275 3.531,-2.275 4.55,-1.257 4.55,0 4.55,1.256 3.531,2.274 2.275,2.274 1.019,2.274 0,1.256 0,0"
             style="fill:#e12526;fill-opacity:1;fill-rule:nonzero;stroke:none"
             id="path374" /></g><g
           id="g376"
           transform="translate(125.4713,173.7671)"><path
             d="m 0,0 c 0,-1.257 1.019,-2.275 2.275,-2.275 1.256,0 2.274,1.018 2.274,2.275 0,1.256 -1.018,2.274 -2.274,2.274 C 1.019,2.274 0,1.256 0,0"
             style="fill:#64c7c7;fill-opacity:1;fill-rule:nonzero;stroke:none"
             id="path378" /></g><g
           id="g380"
           transform="translate(109.7525,177.0444)"><path
             d="M 0,0 C 0,-1.257 1.019,-2.275 2.275,-2.275 3.531,-2.275 4.55,-1.257 4.55,0 4.55,1.256 3.531,2.274 2.275,2.274 1.019,2.274 0,1.256 0,0"
             style="fill:#3e5aa8;fill-opacity:1;fill-rule:nonzero;stroke:none"
             id="path382" /></g><g
           id="g384"
           transform="translate(165.7203,175.4917)"><path
             d="m 0,0 c 0,-1.256 1.019,-2.274 2.275,-2.274 1.256,0 2.274,1.018 2.274,2.274 0,1.257 -1.018,2.275 -2.274,2.275 C 1.019,2.275 0,1.257 0,0"
             style="fill:#f07721;fill-opacity:1;fill-rule:nonzero;stroke:none"
             id="path386" /></g><g
           id="g388"
           transform="translate(93.4854,183.0366)"><path
             d="m 0,0 c 0,-1.257 1.019,-2.275 2.275,-2.275 1.256,0 2.274,1.018 2.274,2.275 0,1.256 -1.018,2.274 -2.274,2.274 C 1.019,2.274 0,1.256 0,0"
             style="fill:#a6abd6;fill-opacity:1;fill-rule:nonzero;stroke:none"
             id="path390" /></g><g
           id="g392"
           transform="translate(199.252,175.4917)"><path
             d="M 0,0 C 0,-1.256 1.019,-2.274 2.275,-2.274 3.531,-2.274 4.55,-1.256 4.55,0 4.55,1.257 3.531,2.275 2.275,2.275 1.019,2.275 0,1.257 0,0"
             style="fill:#f07721;fill-opacity:1;fill-rule:nonzero;stroke:none"
             id="path394" /></g><g
           id="g396"
           transform="translate(220.898,173.7671)"><path
             d="M 0,0 C 0,-1.257 1.019,-2.275 2.275,-2.275 3.531,-2.275 4.55,-1.257 4.55,0 4.55,1.256 3.531,2.274 2.275,2.274 1.019,2.274 0,1.256 0,0"
             style="fill:#e12526;fill-opacity:1;fill-rule:nonzero;stroke:none"
             id="path398" /></g><g
           id="g400"
           transform="translate(239.9942,173.7671)"><path
             d="m 0,0 c 0,-1.257 1.019,-2.275 2.275,-2.275 1.256,0 2.274,1.018 2.274,2.275 0,1.256 -1.018,2.274 -2.274,2.274 C 1.019,2.274 0,1.256 0,0"
             style="fill:#64c7c7;fill-opacity:1;fill-rule:nonzero;stroke:none"
             id="path402" /></g><g
           id="g404"
           transform="translate(255.5015,177.0444)"><path
             d="M 0,0 C 0,-1.257 1.019,-2.275 2.275,-2.275 3.531,-2.275 4.55,-1.257 4.55,0 4.55,1.256 3.531,2.274 2.275,2.274 1.019,2.274 0,1.256 0,0"
             style="fill:#3e5aa8;fill-opacity:1;fill-rule:nonzero;stroke:none"
             id="path406" /></g><g
           id="g408"
           transform="translate(271.3004,183.3188)"><path
             d="M 0,0 C 0,-1.256 1.019,-2.274 2.275,-2.274 3.531,-2.274 4.55,-1.256 4.55,0 4.55,1.256 3.531,2.274 2.275,2.274 1.019,2.274 0,1.256 0,0"
             style="fill:#a6abd6;fill-opacity:1;fill-rule:nonzero;stroke:none"
             id="path410" /></g><g
           id="g412"
           transform="translate(66.5772,342.2124)"><path
             d="m 0,0 c 0,0 -32.37,-121.479 -10.04,-143.81 0,0 65.929,-59.6 128.174,-59.6 62.245,0 127.474,59.6 127.474,59.6 C 267.938,-121.479 235.568,0 235.568,0"
             style="fill:none;stroke:#919191;stroke-width:2;stroke-linecap:butt;stroke-linejoin:miter;stroke-miterlimit:10;stroke-dasharray:none;stroke-opacity:1"
             id="path414" /></g><g
           id="g416"
           transform="translate(251.9981,68.481)"><path
             d="M 0,0 C -18.391,18.705 -21.997,49.423 -17.148,81.181"
             style="fill:none;stroke:#919191;stroke-width:2;stroke-linecap:butt;stroke-linejoin:miter;stroke-miterlimit:10;stroke-dasharray:none;stroke-opacity:1"
             id="path418" /></g><g
           id="g420"
           transform="translate(116.8614,68.481)"><path
             d="M 0,0 C 18.391,18.705 21.996,49.423 17.148,81.181"
             style="fill:none;stroke:#919191;stroke-width:2;stroke-linecap:butt;stroke-linejoin:miter;stroke-miterlimit:10;stroke-dasharray:none;stroke-opacity:1"
             id="path422" /></g><g
           id="g424"
           transform="translate(157.377,351.0464)"><path
             d="M 0,0 C 0,0 15.881,-17.383 27.042,-17.383 38.202,-17.383 54.425,0 54.425,0"
             style="fill:none;stroke:#919191;stroke-width:2;stroke-linecap:butt;stroke-linejoin:miter;stroke-miterlimit:10;stroke-dasharray:none;stroke-opacity:1"
             id="path426" /></g></g></g></g></svg>
