<?xml version="1.0" encoding="UTF-8" standalone="no"?>
<svg
   xmlns:dc="http://purl.org/dc/elements/1.1/"
   xmlns:cc="http://creativecommons.org/ns#"
   xmlns:rdf="http://www.w3.org/1999/02/22-rdf-syntax-ns#"
   xmlns:svg="http://www.w3.org/2000/svg"
   xmlns="http://www.w3.org/2000/svg"
   xmlns:sodipodi="http://sodipodi.sourceforge.net/DTD/sodipodi-0.dtd"
   xmlns:inkscape="http://www.inkscape.org/namespaces/inkscape"
   version="1.1"
   id="Layer_1"
   x="0px"
   y="0px"
   viewBox="0 0 360 66.682724"
   xml:space="preserve"
   sodipodi:docname="Dentist App Logo-1.svg"
   width="360"
   height="66.682724"
   inkscape:version="1.0.1 (c497b03c, 2020-09-10)"><metadata
   id="metadata44"><rdf:RDF><cc:Work
       rdf:about=""><dc:format>image/svg+xml</dc:format><dc:type
         rdf:resource="http://purl.org/dc/dcmitype/StillImage" /></cc:Work></rdf:RDF></metadata><defs
   id="defs42" /><sodipodi:namedview
   pagecolor="#ffffff"
   bordercolor="#666666"
   borderopacity="1"
   objecttolerance="10"
   gridtolerance="10"
   guidetolerance="10"
   inkscape:pageopacity="0"
   inkscape:pageshadow="2"
   inkscape:window-width="1207"
   inkscape:window-height="769"
   id="namedview40"
   showgrid="false"
   inkscape:zoom="1.53125"
   inkscape:cx="180"
   inkscape:cy="32.39"
   inkscape:window-x="0"
   inkscape:window-y="25"
   inkscape:window-maximized="0"
   inkscape:current-layer="g37" />
<style
   type="text/css"
   id="style10">
	.st0{fill-rule:evenodd;clip-rule:evenodd;fill:#FFFFFF;}
	.st1{fill-rule:evenodd;clip-rule:evenodd;fill:url(#SVGID_1_);}
	.st2{fill-rule:evenodd;clip-rule:evenodd;fill:#081B27;}
</style>
<g
   id="g37"
   transform="translate(-60,-207.61)">
	<rect
   y="1.9400001"
   class="st0"
   width="480"
   height="478.06"
   id="rect12"
   x="0" />
	<g
   id="g35">
		<linearGradient
   id="SVGID_1_"
   gradientUnits="userSpaceOnUse"
   x1="74.056297"
   y1="260.01859"
   x2="104.6569"
   y2="212.8978">
			<stop
   offset="0"
   style="stop-color:#EB2329"
   id="stop14" />
			<stop
   offset="0.1079"
   style="stop-color:#ED5129"
   id="stop16" />
			<stop
   offset="0.2591"
   style="stop-color:#F17629"
   id="stop18" />
			<stop
   offset="0.4114"
   style="stop-color:#F59129"
   id="stop20" />
			<stop
   offset="0.5623"
   style="stop-color:#F8A528"
   id="stop22" />
			<stop
   offset="0.7116"
   style="stop-color:#FBB426"
   id="stop24" />
			<stop
   offset="0.8584"
   style="stop-color:#FCBE24"
   id="stop26" />
			<stop
   offset="1"
   style="stop-color:#FDC123"
   id="stop28" />
		</linearGradient>
		<path
   class="st1"
   d="m 60,235.17 v 1.08 c 0.24,12.17 8.48,23.21 20.87,26.52 2.26,0.6 4.54,0.91 6.78,0.96 h 1.08 c 0.36,-0.01 0.72,-0.02 1.09,-0.04 1.31,-0.08 2.48,0.66 2.97,1.88 l 2.73,6.83 c 0.31,0.78 0.87,1.34 1.65,1.66 0.78,0.32 1.57,0.31 2.35,-0.03 l 0.12,-0.05 c 1.49,-0.65 2.19,-2.38 1.57,-3.88 L 93.2,250.67 c -0.12,-0.31 -0.26,-0.62 -0.38,-0.93 l -0.03,-0.06 v 0 c -2.55,-5.92 -5.81,-9.47 -9.08,-0.51 -0.06,0.17 -0.12,0.31 -0.2,0.47 -2.33,4.63 -4.46,4.39 -6.39,-0.72 -0.24,-0.64 -0.32,-1.23 -0.26,-1.91 0.33,-3.6 -0.31,-7.23 -1.86,-10.51 -1.78,-3.47 -2.5,-7.39 -2.07,-11.26 0.11,-2.06 1.1,-3.98 2.72,-5.27 2.87,-2.28 11.93,-1.96 13.79,1 -0.12,-0.22 -0.26,-0.42 -0.41,-0.62 -0.12,-0.16 -0.16,-0.34 -0.1,-0.53 0.06,-0.19 0.19,-0.33 0.38,-0.39 3.52,-1.2 8.5,-1.75 11.38,0.54 1.62,1.29 2.61,3.2 2.72,5.27 0.43,3.87 -0.29,7.79 -2.07,11.26 -3.21,6.81 -1.54,12.66 0.72,18.91 0.35,0.96 1.09,1.63 2.08,1.88 1,0.25 1.97,0.02 2.73,-0.66 3.98,-3.52 7.01,-8.2 8.49,-13.71 0.6,-2.26 0.92,-4.52 0.96,-6.75 v -1.08 c -0.25,-12.17 -8.48,-23.21 -20.87,-26.52 -2.26,-0.6 -4.54,-0.91 -6.78,-0.96 h -1.09 c -12.22,0.24 -23.31,8.45 -26.63,20.79 -0.6,2.28 -0.91,4.54 -0.95,6.77 z"
   id="path31"
   style="fill:url(#SVGID_1_)" />
		<path
   class="st2"
   d="m 385.6,255.66 h 9.12 V 235.8 c 0,-5.78 3.19,-8.89 8.15,-8.89 4.82,0 8.01,3.12 8.01,8.89 v 19.86 H 420 v -21.09 c 0,-9.93 -5.93,-15.38 -14.07,-15.38 -4.82,0 -8.86,1.95 -11.21,5 V 207.64 H 385.6 Z M 358.94,219.7 v 7.46 h 4.3 v 17.33 c 0,8.24 4.63,11.16 11.53,11.16 h 5.73 V 248 h -4.23 c -2.87,0 -3.84,-1.04 -3.84,-3.44 v -17.39 h 8.08 v -7.46 h -8.08 v -8.89 h -9.19 v 8.89 h -4.3 z m -203.05,0 h -9.19 v 19.79 c 0,5.78 -3.13,8.89 -8.08,8.89 -4.82,0 -8.01,-3.11 -8.01,-8.89 V 219.7 h -9.12 v 21.09 c 0,9.86 6.06,15.32 14.47,15.32 4.5,0 8.47,-1.95 10.75,-5 v 4.54 h 9.19 V 219.7 Z m 182.72,6.88 c 4.69,0 8.47,2.99 8.6,7.72 h -17.14 c 0.72,-4.93 4.17,-7.72 8.54,-7.72 z m 17.14,17.78 h -9.84 c -1.17,2.4 -3.32,4.35 -7.23,4.35 -4.56,0 -8.21,-2.99 -8.67,-8.31 h 26.39 c 0.2,-1.17 0.26,-2.34 0.26,-3.5 0,-10.71 -7.36,-17.78 -17.79,-17.78 -10.69,0 -18.11,7.2 -18.11,18.56 0,11.29 7.62,18.56 18.11,18.56 8.93,0 14.92,-5.26 16.88,-11.88 z M 299.9,226.58 c 4.69,0 8.47,2.99 8.6,7.72 h -17.14 c 0.72,-4.93 4.18,-7.72 8.54,-7.72 z m 17.14,17.78 h -9.84 c -1.17,2.4 -3.32,4.35 -7.23,4.35 -4.56,0 -8.21,-2.99 -8.67,-8.31 h 26.39 c 0.2,-1.17 0.26,-2.34 0.26,-3.5 0,-10.71 -7.36,-17.78 -17.79,-17.78 -10.69,0 -18.11,7.2 -18.11,18.56 0,11.29 7.62,18.56 18.11,18.56 8.93,0 14.92,-5.26 16.88,-11.88 z m -55,0.13 c 0,8.24 4.63,11.16 11.53,11.16 h 5.73 V 248 h -4.23 c -2.87,0 -3.84,-1.04 -3.84,-3.44 v -17.39 h 8.08 v -7.46 h -8.08 v -8.89 h -9.19 v 8.89 h -4.3 v 7.46 h 4.3 z m -23.98,0.33 -9.32,-25.12 h -10.23 l 14.47,35.04 -7.82,17.91 h 9.71 l 22.35,-52.96 h -9.71 z m -32,10.84 h 9.12 v -48.02 h -9.12 z m -45.02,-18.11 c 0,11.23 7.3,18.69 16.42,18.69 5.73,0 9.84,-2.73 11.99,-5.84 v 5.26 h 9.19 V 219.7 h -9.19 v 5.13 c -2.15,-2.98 -6.13,-5.71 -11.92,-5.71 -9.2,0 -16.49,7.2 -16.49,18.43 z m 28.4,0.13 c 0,6.81 -4.56,10.58 -9.58,10.58 -4.89,0 -9.51,-3.89 -9.51,-10.71 0,-6.81 4.63,-10.45 9.51,-10.45 5.02,0 9.58,3.77 9.58,10.58 z"
   id="path33" />
	</g>
</g>
</svg>
